<svg width="204" height="141" viewBox="0 0 204 141" fill="none" xmlns="http://www.w3.org/2000/svg">
<path d="M127.474 140.749C132.698 140.749 137.98 139.522 141.875 137.113L197.272 102.857C204.559 98.3495 204.348 91.3414 196.801 87.2831L88.2 28.8871C84.6865 26.9976 80.1785 26.068 75.6281 26.068C70.403 26.068 65.1224 27.294 61.2269 29.7029L5.8306 63.9599C-1.45703 68.467 -1.24532 75.4752 6.30107 79.5325L114.902 137.929C118.416 139.818 122.924 140.749 127.474 140.749Z" fill="#D9D6D9"/>
<path d="M141.865 126.03L197.261 91.7733C200.591 89.7136 202.336 87.1325 202.551 84.5497L202.557 84.5487L203.545 76.9685L200.885 79.4921C199.924 78.2801 198.569 77.1566 196.79 76.2006L88.1893 17.8046C80.6419 13.7463 68.5037 14.1133 61.2161 18.6204L5.81979 52.8774C4.84497 53.4796 4.01508 54.1298 3.30843 54.8092L1.90926 50.3707L0.571228 59.6616C0.560883 59.7275 0.550522 59.7934 0.542053 59.8592L0.529816 59.9449L0.5383 59.9373C0.199554 63.0622 2.11906 66.2069 6.29027 68.4501L114.891 126.846C122.439 130.904 134.576 130.537 141.865 126.03Z" fill="#A6AFB2"/>
<path d="M113.001 113.082L188.222 66.5653L92.1704 14.9177L17.2749 61.2329L113.001 113.082ZM149.448 104.16L176.281 87.5662L172.851 85.722L146.017 102.316L149.448 104.16ZM45.1589 28.5501L38.2015 32.8521L44.3525 36.1596L51.3098 31.8566L45.1589 28.5501ZM7.01105 44.0814L62.4083 9.82437C69.6959 5.31725 81.8331 4.94933 89.3805 9.00762L197.982 67.4046C205.529 71.4619 205.741 78.4701 198.452 82.9772L143.056 117.234C135.768 121.74 123.63 122.108 116.084 118.05L7.48152 59.654C-0.0648651 55.5957 -0.276566 48.5876 7.01105 44.0814Z" fill="#E1E7EA"/>
<path d="M94.12 13.7113L190.128 65.3862L113.001 113.082L17.2749 61.2329L94.12 13.7113Z" fill="#EDD5B9"/>
<path d="M153.629 40.7345C157.299 40.7345 160.273 37.7602 160.273 34.0914C160.273 30.4217 157.299 27.4483 153.629 27.4483C149.96 27.4483 146.986 30.4217 146.986 34.0914C146.986 37.7602 149.96 40.7345 153.629 40.7345ZM142.925 29.6285C143.22 28.9341 143.579 28.2735 143.997 27.6553C144.831 26.4199 145.898 25.3528 147.134 24.5173C148.988 23.2649 151.223 22.5338 153.629 22.5338C156.035 22.5338 158.271 23.2649 160.125 24.5173C161.361 25.3528 162.427 26.4199 163.263 27.6553C163.68 28.2735 164.04 28.9341 164.333 29.6285C164.922 31.0183 165.247 32.5464 165.247 34.1507C165.247 34.5497 165.224 34.9439 165.184 35.3325C165.169 35.4831 165.139 35.6289 165.118 35.7776C165.084 36.0109 165.054 36.2452 165.007 36.4748C164.97 36.6527 164.921 36.8258 164.875 37.0008C164.826 37.1946 164.78 37.3885 164.722 37.5785C164.667 37.7573 164.6 37.9314 164.536 38.1064C164.486 38.2419 164.445 38.3812 164.392 38.5138H164.399C164.385 38.5468 164.368 38.5854 164.353 38.6192C164.32 38.6954 164.295 38.7528 164.294 38.7547C164.288 38.7688 164.282 38.783 164.276 38.7961H164.281C163.036 41.8025 161.546 45.0271 159.761 48.3975C157.737 52.215 155.65 55.6202 153.629 58.6162C151.608 55.6202 149.521 52.215 147.498 48.3975C145.712 45.0271 144.224 41.8025 142.979 38.7961H142.983C142.978 38.783 142.971 38.7688 142.965 38.7547C142.965 38.7528 142.939 38.6954 142.906 38.6192C142.891 38.5854 142.874 38.5468 142.86 38.5138H142.868C142.813 38.3812 142.773 38.2419 142.724 38.1064C142.66 37.9314 142.593 37.7573 142.537 37.5785C142.478 37.3885 142.433 37.1946 142.383 37.0008C142.339 36.8258 142.288 36.6527 142.252 36.4748C142.205 36.2452 142.174 36.0109 142.141 35.7776C142.12 35.6289 142.09 35.4831 142.074 35.3325C142.035 34.9439 142.012 34.5497 142.012 34.1507C142.012 32.5464 142.338 31.0183 142.925 29.6285Z" fill="#6D3FFF"/>
<path d="M60.6145 19.1568C64.2833 19.1568 67.2576 16.1825 67.2576 12.5137C67.2576 8.84406 64.2833 5.86972 60.6145 5.86972C56.9458 5.86972 53.9715 8.84406 53.9715 12.5137C53.9715 16.1825 56.9458 19.1568 60.6145 19.1568ZM49.9103 8.05083C50.2039 7.35548 50.5643 6.69588 50.9811 6.07768C51.8167 4.84128 52.8837 3.77518 54.1192 2.93963C55.9738 1.68723 58.2085 0.956108 60.6145 0.956108C63.0205 0.956108 65.2562 1.68723 67.1099 2.93963C68.3463 3.77518 69.4124 4.84128 70.2479 6.07768C70.6648 6.69588 71.0252 7.35548 71.3187 8.05083C71.9068 9.44061 72.2314 10.9687 72.2314 12.573C72.2314 12.972 72.2098 13.3653 72.1693 13.7548C72.1543 13.9044 72.1242 14.0512 72.1025 14.1999C72.0696 14.4333 72.0395 14.6676 71.9924 14.8962C71.9557 15.075 71.9059 15.2481 71.8607 15.4231C71.8118 15.617 71.7657 15.8108 71.7064 16C71.6509 16.1797 71.5841 16.3528 71.5201 16.5288C71.4712 16.6642 71.4307 16.8035 71.3771 16.9362H71.3846C71.3695 16.9691 71.3526 17.0077 71.3385 17.0416C71.3046 17.1178 71.2801 17.1752 71.2792 17.1771C71.2736 17.1902 71.267 17.2044 71.2604 17.2185H71.2651C70.0202 20.2239 68.5316 23.4494 66.7457 26.8189C64.7227 30.6373 62.6357 34.0426 60.6145 37.0376C58.5934 34.0426 56.5064 30.6373 54.4833 26.8189C52.6974 23.4494 51.2088 20.2239 49.964 17.2185H49.9687C49.963 17.2044 49.9564 17.1902 49.9499 17.1771C49.9499 17.1752 49.9244 17.1178 49.8915 17.0416C49.8765 17.0077 49.8595 16.9691 49.8445 16.9362H49.852C49.7984 16.8035 49.7579 16.6642 49.709 16.5288C49.645 16.3528 49.5782 16.1797 49.5227 16C49.4634 15.8108 49.4173 15.617 49.3683 15.4231C49.3241 15.2481 49.2733 15.075 49.2366 14.8962C49.1896 14.6676 49.1595 14.4333 49.1265 14.1999C49.1049 14.0512 49.0748 13.9044 49.0597 13.7548C49.0202 13.3653 48.9976 12.972 48.9976 12.573C48.9976 10.9687 49.3222 9.44061 49.9103 8.05083Z" fill="#6D3FFF"/>
<path d="M131.877 37.6744C135.101 39.4557 136.166 42.1411 134.244 43.6419C132.323 45.1418 128.483 45.2745 125.711 43.9374C122.939 42.5993 118.078 43.0397 114.909 44.9169L112.296 46.4638C109.127 48.3401 104.693 48.9338 102.442 47.783C100.192 46.6313 100.868 44.0362 103.947 42.0141L114.702 34.9504C117.78 32.9283 122.936 32.7317 126.16 34.5138L131.877 37.6744Z" fill="#84A7E8"/>
<path d="M140.731 69.087C142.673 65.9574 141.615 61.9547 138.382 60.1913L127.4 54.2041C124.167 52.4408 118.894 52.4728 115.683 54.2765L103.505 61.1125C100.293 62.9154 100.299 65.8558 103.517 67.6464L125.993 80.1526C129.212 81.9432 133.434 80.8479 135.376 77.7183L140.731 69.087Z" fill="#AADA77"/>
<path d="M100.213 57.2397L89.4344 51.5564L67.2186 64.356L78.1816 69.6921L100.213 57.2397Z" fill="#B4ADA5"/>
<path d="M117.891 110.058L120.043 108.727L99.3845 96.7084L115.573 86.2893L85.1565 68.7257L83.4844 70.3375L111.287 86.3919L95.1098 96.8044L117.891 110.058Z" fill="white"/>
<path d="M187.369 65.5067L157.794 83.4082L153.629 68.2966L170.614 56.5668L187.369 65.5067Z" fill="#B4ADA5"/>
<path d="M109.709 24.4919L96.2238 32.8616L81.0643 24.7704L94.3278 16.2774L109.709 24.4919Z" fill="#AADA77"/>
<path d="M74.424 92.1873L96.1504 76.9054L94.866 75.0781L72.2316 90.9998L74.424 92.1873Z" fill="white"/>
<path d="M31.0671 60.5799L32.7081 59.4122C35.7097 57.2781 40.8463 56.9074 44.1237 58.5888L77.7568 75.843C81.0341 77.5244 81.3051 80.7086 78.36 82.9198L76.2965 84.4705C73.3504 86.6817 68.2787 87.0797 65.0249 85.355L31.5263 67.5965C28.2716 65.8718 28.0655 62.7139 31.0671 60.5799Z" fill="#AADA77"/>
<path d="M107.904 86.7072L95.6276 79.3876L76.3251 92.6446L112.229 112.311L115.717 109.94L92.9356 96.829L107.904 86.7072Z" fill="#B4ADA5"/>
<path d="M78.4138 71.0676L102.723 57.2122L95.9436 53.519L71.7557 67.6153L78.4138 71.0676ZM38.9289 50.5908L69.3855 66.3855L93.5734 52.228L81.6733 45.7449L44.4937 44.4003L47.9046 42.2907L83.6389 43.5836L93.8943 37.0233L73.393 26.5289L75.6126 25.1561L84.0435 29.4722L90.6583 25.4384L92.8752 26.6992L86.3733 30.6644L96.0725 35.6297L113.789 24.2979L115.931 25.4506L85.3223 45.1907L105.003 55.9137L121.41 46.5616L153.544 63.6502L168.445 53.7156L170.614 54.953L153.673 66.2472L151.025 64.8386L155.836 86.5932L153.824 87.8372L148.433 63.461L121.447 49.1107L93.0314 65.3053L109.819 75.188L107.707 76.5336L90.7976 66.5784L78.507 73.5828L39.0588 53.1859L22.6252 64.13L20.4045 62.9275L38.9289 50.5908Z" fill="white"/>
<path d="M98.0926 78.8248C101.761 78.8248 104.736 75.8505 104.736 72.1817C104.736 68.512 101.761 65.5387 98.0926 65.5387C94.4229 65.5387 91.4485 68.512 91.4485 72.1817C91.4485 75.8505 94.4229 78.8248 98.0926 78.8248ZM87.3884 67.7188C87.6819 67.0244 88.0423 66.3639 88.4592 65.7457C89.2947 64.5102 90.3608 63.4432 91.5972 62.6076C93.4518 61.3552 95.6866 60.6241 98.0926 60.6241C100.499 60.6241 102.733 61.3552 104.588 62.6076C105.823 63.4432 106.89 64.5102 107.726 65.7457C108.143 66.3639 108.503 67.0244 108.797 67.7188C109.385 69.1086 109.709 70.6367 109.709 72.241C109.709 72.64 109.687 73.0342 109.647 73.4228C109.632 73.5734 109.602 73.7193 109.581 73.8679C109.548 74.1013 109.518 74.3356 109.47 74.5652C109.434 74.743 109.384 74.9161 109.339 75.0912C109.29 75.285 109.244 75.4788 109.184 75.6689C109.129 75.8477 109.062 76.0217 108.998 76.1968C108.949 76.3323 108.909 76.4715 108.855 76.6042H108.863C108.848 76.6371 108.831 76.6757 108.816 76.7096C108.783 76.7858 108.757 76.8432 108.757 76.8451C108.751 76.8592 108.745 76.8733 108.738 76.8865H108.743C107.498 79.8918 106.01 83.1174 104.224 86.4869C102.201 90.3053 100.114 93.7106 98.0926 96.7065C96.0714 93.7106 93.9844 90.3053 91.9613 86.4869C90.1754 83.1174 88.6869 79.8918 87.442 76.8865H87.4467C87.4401 76.8733 87.4335 76.8592 87.4279 76.8451C87.4269 76.8432 87.4025 76.7858 87.3686 76.7096C87.3545 76.6757 87.3375 76.6371 87.3225 76.6042H87.33C87.2764 76.4715 87.2359 76.3323 87.187 76.1968C87.123 76.0217 87.0562 75.8477 87.0007 75.6689C86.9414 75.4788 86.8953 75.285 86.8464 75.0912C86.8012 74.9161 86.7513 74.743 86.7146 74.5652C86.6676 74.3356 86.6375 74.1013 86.6036 73.8679C86.5829 73.7193 86.5528 73.5734 86.5378 73.4228C86.4973 73.0342 86.4756 72.64 86.4756 72.241C86.4756 70.6367 86.8003 69.1086 87.3884 67.7188Z" fill="#6D3FFF"/>
</svg>
